cover 
http://img521.imageshack.us/img521/1014/17758108c6ba1867e60bf5a.jpg
Genre:Documentary | Action | Comedy
Language:English
IMDb:http://www.imdb.com/title/tt1116184/
Source:NoGrp.Thx

General
Complete name :Jackass 3D 2010 Cam H264 Feel-Free
Format : MPEG-4
Format profile : Base Media
Codec ID : isom
File size : 607 MiB
Duration : 1h 32mn
Overall bit rate : 920 Kbps
Video #2
Codec ID : avc1
Codec ID/Info : Advanced Video Coding
Duration : 1h 32mn
Bit rate mode : Variable
Bit rate : 827 Kbps
Width : 640 pixels
Height : 352 pixels
Display aspect ratio : 16:9
Frame rate mode : Constant
Frame rate : 29.970 fps
Original frame rate : 29.000 fps
Resolution : 24 bits
Colorimetry : 4:2:0
Scan type : Progressive
Bits/(Pixel*Frame) : 0.122
Stream size : 546 MiB (90%)
Audio #1
ID : 1
Format : AAC
Format/Info : Advanced Audio Codec
Format version : Version 4
Format profile : LC
Format settings, SBR : No
Codec ID : 40
Duration : 1h 32mn
Bit rate mode : Constant
Bit rate : 87.0 Kbps
Channel(s) : 2 channels
Channel positions : L R
Sampling rate : 48.0 KHz
Resolution : 16 bits
Stream size : 57.4 MiB (9%)

Plot:
Johnny Knoxville and company return for the third installment of their TV show spin-off, where dangerous stunts and explicit public displays rule.

screens 
http://img186.imageshack.us/img186/4676/jackass3d2010camh264fee.jpg
 
http://img688.imageshack.us/img688/4676/jackass3d2010camh264fee.jpg
 
http://img521.imageshack.us/img521/4676/jackass3d2010camh264fee.jpg
 
http://img841.imageshack.us/img841/4676/jackass3d2010camh264fee.jpg